# xmcd CD database file
#
# Track frame offsets:
#	150
#	14223
#	27062
#	40173
#	53682
#	65814
#	91234
#	104338
#	120108
#	129013
#	140436
#	150984
#	161455
#
# Disc length: 2360 seconds
#
# Revision: 0
# Processed by: cddbd v1.5.2PL0 Copyright (c) Steve Scherf et al.
# Submitted via: CDex 1.51
#
DISCID=9909360d
DTITLE=Banda de Musica - 38o BI - Batalhao Tiburcio - Vila Velha - ES
DYEAR=1900
DGENRE=Jazz
TTITLE0=Dobrado ao Exercito Brasileiro (Amadeu Russo)
TTITLE1=Dobrado Barao do Rio Branco (Francisco Braga)
TTITLE2=Dobrado Cel Carlos Roberto Terra Amaral (Cap Daniel da Costa)
TTITLE3=Pout Pourrit da 2a Brigada de Infantaria Motorizada (2o Sgt Gedeao Mathias de Souza)
TTITLE4=Marcha Heroica 07 de Setembro
TTITLE5=Dobrado Sinfonico Rabi da Galileia (H. Guerreiro)
TTITLE6=Cancao do Exercito (Teofilo Magalhaes)
TTITLE7=Cancao do Expedicionario (Spartaco Rossi)
TTITLE8=Cancao do 38o BI (Sgt Mozart Bicalho)
TTITLE9=Hino do Estado do Espirito Santo (A. Napoleao)
TTITLE10=Hido da Independencia (D. Pedro I)
TTITLE11=Hino a Bandeira (Francisco Braga)
TTITLE12=Hino Nacional Brasileiro (Francisco Manoel da Silva)
EXTD=
EXTT0=
EXTT1=
EXTT2=
EXTT3=
EXTT4=
EXTT5=
EXTT6=
EXTT7=
EXTT8=
EXTT9=
EXTT10=
EXTT11=
EXTT12=
PLAYORDER=
